<svg width="20" height="20" viewBox="0 0 20 20" fill="none" xmlns="http://www.w3.org/2000/svg">
<g opacity="0.6">
<path d="M18.75 8.75H1.25C0.559648 8.75 0 9.30965 0 10C0 10.6904 0.559648 11.25 1.25 11.25H18.75C19.4404 11.25 20 10.6904 20 10C20 9.30965 19.4404 8.75 18.75 8.75Z" fill="#F5F5F5"/>
<path d="M1.25 5.41668H18.75C19.4404 5.41668 20 4.85703 20 4.16668C20 3.47633 19.4404 2.91668 18.75 2.91668H1.25C0.559648 2.91668 0 3.47633 0 4.16668C0 4.85703 0.559648 5.41668 1.25 5.41668Z" fill="#F5F5F5"/>
<path d="M18.75 14.5833H1.25C0.559648 14.5833 0 15.143 0 15.8333C0 16.5237 0.559648 17.0833 1.25 17.0833H18.75C19.4404 17.0833 20 16.5237 20 15.8333C20 15.143 19.4404 14.5833 18.75 14.5833Z" fill="#F5F5F5"/>
</g>
</svg>
